<?xml version="1.0" standalone="no"?>
<!DOCTYPE svg PUBLIC "-//W3C//DTD SVG 1.1//EN" "http://www.w3.org/Graphics/SVG/1.1/DTD/svg11.dtd" >
<svg xmlns="http://www.w3.org/2000/svg" xmlns:xlink="http://www.w3.org/1999/xlink" version="1.1">
<metadata>
Created by FontForge 20170731 at Sun Apr 16 09:59:24 2023
 By Aleksey,,,
Copyright (c) 2021 by Geranium Space. All rights reserved.
</metadata>
<defs>
<font id="SilkFlowerDemo-Regular" horiz-adv-x="512" >
  <font-face 
    font-family="Silk Flower Demo"
    font-weight="400"
    font-stretch="normal"
    units-per-em="2048"
    panose-1="0 0 0 0 0 0 0 0 0 0"
    ascent="1536"
    descent="-512"
    x-height="1024"
    cap-height="1434"
    bbox="-268.892 -557 2373.13 1575"
    underline-thickness="102"
    underline-position="-358"
    unicode-range="U+000D-0394"
  />
<missing-glyph 
 />
    <glyph glyph-name=".notdef" 
 />
    <glyph glyph-name="uni0000" horiz-adv-x="0" 
 />
    <glyph glyph-name="uni0000" horiz-adv-x="0" 
 />
    <glyph glyph-name="uni000D" unicode="&#xd;" 
 />
    <glyph glyph-name="space" unicode=" " horiz-adv-x="532" 
 />
    <glyph glyph-name="exclam" unicode="!" horiz-adv-x="385" 
d="M41 1409q0 25 25 25h253q12 0 19.5 -7t5.5 -18l-98 -1087q-4 -21 -23 -21h-59q-22 0 -25 21zM57 94q0 56 38.5 94.5t94.5 38.5q55 0 93.5 -38.5t38.5 -94.5t-38.5 -94.5t-93.5 -38.5q-56 0 -94.5 38.5t-38.5 94.5z" />
    <glyph glyph-name="quotedbl" unicode="&#x22;" horiz-adv-x="790" 
d="M43 1448q-3 12 2.5 19.5t17.5 7.5h254q12 0 18 -7.5t3 -19.5l-92 -457q-3 -20 -25 -20h-59q-24 0 -27 20zM453 1448q-3 12 2.5 19.5t17.5 7.5h254q12 0 18 -7.5t3 -19.5l-93 -457q-3 -20 -24 -20h-60q-23 0 -26 20z" />
    <glyph glyph-name="numbersign" unicode="#" horiz-adv-x="1060" 
d="M20 272v72h164l97 285h-183v71h205l109 322h143l-109 -322h287l109 322h143l-108 -322h163v-71h-188l-94 -285h205v-72h-230l-90 -272h-143l90 272h-287l-90 -272h-143l92 272h-142zM422 629l-94 -285h286l95 285h-287z" />
    <glyph glyph-name="dollar" unicode="$" horiz-adv-x="1304" 
d="M47 344q-17 79 28.5 132.5t114.5 53.5q47 0 91 -30.5t73 -93.5q2 -4 14.5 -32.5t20.5 -45.5t25.5 -49.5t32.5 -55t38.5 -52t46.5 -50t53.5 -39.5t63.5 -29v500q-30 19 -95.5 59.5t-101 63t-93 62t-90.5 68t-74 69.5t-62.5 77.5t-37 81t-15.5 90.5q0 141 141 241.5
t369 100.5q39 0 59 -2v111h62v-117q173 -27 304 -114.5t161 -202.5q26 -96 -20.5 -153.5t-119.5 -57.5q-51 0 -92 29t-55 85q-55 195 -178 279v-457q35 -21 94 -55t97.5 -56.5t90.5 -56t86 -60t71.5 -63t59.5 -70.5t36 -75.5t14 -85.5q0 -87 -48.5 -161t-128 -121.5
t-176 -74t-196.5 -28.5v-131h-62v133q-98 6 -190.5 34.5t-162 70t-124 91t-86 98t-39.5 89.5zM522 1382q-57 0 -96 -38.5t-39 -90.5q0 -101 68.5 -184t193.5 -164v453q-59 24 -127 24zM952 217q0 77 -62.5 148t-178.5 149v-473q241 0 241 176z" />
    <glyph glyph-name="percent" unicode="%" horiz-adv-x="1236" 
d="M41 1163q0 128 91 220t220 92q126 0 215.5 -95t89.5 -221q0 -125 -90 -216t-215 -91q-128 0 -219.5 92t-91.5 219zM580 270q0 128 91 220t220 92q126 0 215.5 -95t89.5 -221q0 -125 -90 -216t-215 -91q-127 0 -219 91.5t-92 219.5zM348 1434q-59 0 -96 -81.5t-35 -191.5
q2 -111 40.5 -190t98.5 -78q60 0 96.5 80.5t34.5 191.5q-2 109 -41.5 189t-97.5 80zM887 541q-59 0 -96 -81.5t-35 -191.5q2 -111 40.5 -190t98.5 -78q60 0 96.5 80.5t34.5 191.5q-2 109 -41.5 189t-97.5 80zM256 0h-61l802 1434h62z" />
    <glyph glyph-name="ampersand" unicode="&#x26;" horiz-adv-x="1445" 
d="M618 -41q-108 0 -200 26t-156.5 70.5t-110.5 102t-68 121t-22 127.5q0 142 95 247.5t266 155.5q-126 42 -199 119.5t-73 185.5q0 152 112.5 252t323.5 100q128 0 230 -50t150.5 -137t22.5 -189q-18 -65 -57.5 -98.5t-87.5 -33.5q-62 0 -103.5 48t-23.5 118
q30 126 -10.5 192t-120.5 66q-62 0 -95.5 -46t-33.5 -134q0 -61 6 -109t24 -95.5t48 -78.5t80 -50t118 -19q13 0 17 -2q30 -8 30 -37q0 -18 -16 -29q-12 -10 -35 -10h-29q-85 -6 -151.5 -38.5t-104 -81.5t-56.5 -103.5t-19 -110.5q0 -80 27 -143.5t74 -102.5t107 -59
t130 -20q57 0 114.5 10t116.5 35.5t103.5 62.5t73 96.5t28.5 133.5t-47.5 129t-98.5 55q-28 0 -33.5 -16.5t-5.5 -75.5v-21q0 -66 -37.5 -107.5t-115.5 -41.5q-66 0 -107 42t-41 97q0 63 43 106q23 26 68 49.5t91.5 40t97 44t89 59t64 87t25.5 126.5q0 88 41 140.5t110 52.5
q67 0 103 -45t36 -95q0 -49 -14 -92t-38 -75.5t-58.5 -61t-72 -49.5t-83 -40t-86.5 -33.5t-87 -29.5q-9 -3 -13 -4q113 -13 172 -85t59 -187q0 -122 -76 -227.5t-211.5 -169.5t-298.5 -64z" />
    <glyph glyph-name="asterisk" unicode="*" horiz-adv-x="684" 
d="M41 1096v78q0 10 10 10l238 -29l-195 141q-8 8 0 17l56 57q8 8 14 -2l155 -188l-32 243q0 13 10 13l84 -2q10 0 10 -11l-33 -243l158 190q7 7 14 0l54 -57q7 -11 -2 -17l-189 -141l238 29q10 0 10 -10v-78q0 -11 -12 -11l-236 25l191 -137q10 -7 2 -15l-56 -59
q-7 -7 -14 0l-156 188l31 -241q0 -10 -10 -10h-82q-10 0 -10 10l30 239l-153 -186q-8 -8 -14 0l-56 57q-6 9 2 15l191 143l-238 -29q-4 -1 -7 2t-3 9z" />
    <glyph glyph-name="plus" unicode="+" horiz-adv-x="890" 
d="M57 584q-11 0 -13.5 4t-2.5 22v99q0 12 2.5 15t13.5 3h316v315q0 11 4 14t22 3h99q12 0 15 -3t3 -14v-315h318q11 0 13.5 -3t2.5 -15v-99q0 -18 -2.5 -22t-13.5 -4h-318v-316q0 -11 -3 -13.5t-15 -2.5h-99q-18 0 -22 2.5t-4 13.5v316h-316z" />
    <glyph glyph-name="comma" unicode="," horiz-adv-x="327" 
d="M33 -231q-21 10 -6 28q44 59 58.5 130t16.5 167q0 10 7 17.5t18 7.5h156q10 0 17 -7t7 -18q-6 -89 -52 -187t-116 -159q-19 -16 -43 -6z" />
    <glyph glyph-name="hyphen" unicode="-" horiz-adv-x="708" 
d="M37 584q-11 0 -14 4t-3 22v99q0 12 3 15t14 3h635q11 0 13.5 -3t2.5 -15v-99q0 -18 -2.5 -22t-13.5 -4h-635z" />
    <glyph glyph-name="period" unicode="." horiz-adv-x="387" 
d="M61 135q0 55 39 94t95 39q55 0 93 -38.5t38 -94.5q0 -55 -38 -93t-93 -38q-56 0 -95 38t-39 93z" />
    <glyph glyph-name="zero" unicode="0" horiz-adv-x="1404" 
d="M41 713q0 125 26.5 237t80.5 206.5t131.5 163.5t186 107.5t236.5 38.5q160 0 287.5 -59t208.5 -162.5t123.5 -239t42.5 -292.5q0 -158 -42.5 -293.5t-123.5 -239t-208.5 -162.5t-287.5 -59t-287.5 59t-208 162.5t-123 239t-42.5 293.5zM702 1405q-90 0 -159.5 -53.5
t-111 -149t-62.5 -218.5t-21 -271t21 -271.5t62.5 -219t111 -149t159.5 -53.5t159.5 53.5t111.5 149t63 219t21 271.5t-21 271t-63 218.5t-111.5 149t-159.5 53.5z" />
    <glyph glyph-name="one" unicode="1" horiz-adv-x="630" 
d="M61 1354q-12 7 -17.5 17t-1 18t18.5 10l414 65q17 3 17 -14v-1022q0 -48 3.5 -101t23.5 -142.5t54 -145.5q2 -4 7 -12q10 -13 9.5 -20t-18.5 -7h-469q-25 0 -5 31q1 2 2.5 4t2.5 4q26 43 44.5 102.5t25.5 119t9.5 97.5t2.5 70v537q0 19 0.5 56.5t0.5 54t-1 47t-3 45
t-6 38.5t-10.5 37t-15.5 31.5t-21.5 30.5t-29 25t-37.5 24z" />
    <glyph glyph-name="two" unicode="2" horiz-adv-x="1273" 
d="M131 0q-12 0 -20 8.5t-7 20.5q6 97 54.5 196t120.5 184.5t158 170t170.5 164t154.5 154.5t113 154t43 150q0 83 -41.5 131.5t-106.5 48.5q-209 0 -321 -297q-21 -53 -61 -80.5t-85 -27.5q-71 0 -112 58t-7 149q13 35 39.5 71.5t74 75t108 68t147.5 48.5t186 19
q213 0 349.5 -103t136.5 -249q0 -75 -27.5 -141t-75.5 -118.5t-110.5 -101t-134.5 -92t-145.5 -86t-145.5 -89.5t-132.5 -96.5t-108.5 -112.5t-71 -132q836 17 934 240q3 8 9.5 12.5t12 -1t5.5 -23.5v-330q0 -43 -37 -43h-1067z" />
    <glyph glyph-name="three" unicode="3" horiz-adv-x="1327" 
d="M88 295q-40 92 2 156.5t117 64.5q92 0 145 -94q42 -77 70 -124t68 -101.5t74.5 -84t79.5 -49.5t95 -20q39 0 78 14.5t75 43t58.5 80.5t22.5 118q0 176 -99.5 299t-259.5 133h-22q-22 0 -35 10q-16 11 -16 29q0 29 30 37q4 2 17 2q84 0 149.5 34.5t103.5 92t57.5 125.5
t19.5 141q0 86 -44.5 133t-113.5 47q-95 0 -171 -70.5t-140 -230.5q-21 -50 -61.5 -76t-86.5 -26q-69 0 -109.5 53.5t-11.5 141.5q26 83 109 150.5t200.5 104.5t245.5 37q216 0 353 -103t137 -249q0 -126 -87.5 -213.5t-228.5 -130.5q80 -22 145 -55t117 -79.5t80.5 -110.5
t28.5 -140q0 -80 -39 -155.5t-110 -136.5t-183 -97.5t-246 -36.5q-221 0 -387 100t-227 236z" />
    <glyph glyph-name="four" unicode="4" horiz-adv-x="1167" 
d="M41 530l827 904h119q7 0 10.5 -3t1.5 -8l5 2v-895h116q11 0 14 -3t3 -15v-37q0 -18 -3 -22t-14 -4h-116v-21q0 -48 3.5 -101t23.5 -142.5t54 -145.5q2 -4 7 -12q10 -13 9.5 -20t-18.5 -7h-469q-25 0 -5 31q3 5 5 8q26 43 44.5 102.5t25.5 119t9.5 97.5t2.5 70v21h-639
q-11 0 -13.5 4t-2.5 22v55zM696 1087l-512 -557h512v557z" />
    <glyph glyph-name="five" unicode="5" horiz-adv-x="1245" 
d="M49 295q-40 92 2 156.5t117 64.5q92 0 145 -94q19 -34 47 -88.5t43.5 -83t39.5 -68t44 -60t46.5 -41.5t57.5 -29.5t68 -8.5q94 0 166 109.5t72 279.5q0 86 -29 159.5t-89 134t-164 95.5t-242 35h-258q-11 0 -16.5 7.5t-2.5 19.5l144 522q6 29 34 29h797q37 0 37 -43v-340
q0 -17 -10 -17q-11 0 -21 23q-94 212 -768 231l-94 -342h145q254 0 440 -49.5t295 -158t109 -269.5q0 -69 -19.5 -138t-64 -136.5t-108.5 -119.5t-161.5 -84t-215.5 -32q-197 0 -362 101.5t-224 234.5z" />
    <glyph glyph-name="six" unicode="6" horiz-adv-x="1193" 
d="M68 377q-29 114 -32 239.5t17 246t69 230t119 192.5t172.5 132t223.5 49q143 0 270 -54t174 -136q36 -67 23 -121.5t-57 -88.5t-97 -34q-86 0 -133 84q-12 22 -29.5 59.5t-29.5 62t-31.5 54.5t-39 47.5t-49.5 30t-65 12.5q-164 0 -211 -407q107 49 242 49
q237 0 393 -150.5t156 -384.5q0 -231 -156 -380.5t-393 -149.5q-205 0 -352 115t-184 303zM356 608q0 -82 18.5 -179.5t53 -191.5t93.5 -156.5t130 -62.5q41 0 73.5 12t53.5 30t36.5 48.5t23 58t12 67.5t5.5 69t1 70q0 83 -21 183t-58 192t-95.5 153.5t-124.5 61.5
q-41 0 -73 -11.5t-53 -28.5t-35.5 -47t-22.5 -56t-12 -68t-4.5 -70t-0.5 -74z" />
    <glyph glyph-name="seven" unicode="7" horiz-adv-x="1007" 
d="M41 1051v340q0 43 37 43h893q11 0 14.5 -6t-0.5 -17l-596 -1393q-7 -18 -29 -18h-260q-24 0 -14 23l748 1306q-115 -5 -225 -20.5t-224 -45.5t-198 -83t-115 -123q-10 -23 -21 -23q-10 0 -10 17z" />
    <glyph glyph-name="eight" unicode="8" horiz-adv-x="1183" 
d="M41 389q0 82 27.5 150.5t76.5 117t109 81.5t133 53q-123 39 -191.5 121.5t-68.5 183.5q0 70 32.5 135.5t90.5 118t148 84.5t196 32q104 0 193 -32t147 -84t90.5 -118.5t32.5 -135.5q0 -101 -68.5 -183.5t-189.5 -121.5q98 -27 172.5 -76t123 -133t48.5 -193
q0 -82 -32 -153t-86.5 -121t-125 -86t-148.5 -53t-157 -17t-157.5 17t-149.5 53t-126 86t-87.5 121t-32.5 153zM594 760h-31q-97 -11 -160 -109t-63 -270q0 -180 76 -273.5t184 -93.5q105 2 175.5 97.5t70.5 273.5q0 165 -68 263.5t-166 111.5h-18zM424 1096
q0 -120 46.5 -200t129.5 -79q84 1 126 80t42 203q0 80 -20.5 149.5t-63 114.5t-98.5 45q-42 0 -74.5 -27.5t-51 -73.5t-27.5 -99.5t-9 -112.5z" />
    <glyph glyph-name="nine" unicode="9" horiz-adv-x="1200" 
d="M113 150q-36 67 -23 121t57 88t97 34q86 0 133 -84q12 -22 29.5 -59.5t29.5 -62t31.5 -54.5t39 -47.5t49.5 -30t65 -12.5q163 0 210 408q-109 -50 -241 -50q-156 0 -281 67.5t-196.5 190t-71.5 277.5q0 231 156 380.5t393 149.5q205 0 352 -114.5t184 -302.5
q29 -114 32 -239.5t-17 -246.5t-69 -230.5t-119 -192.5t-172.5 -132t-223.5 -49q-143 0 -270 54.5t-174 136.5zM543 1407q-41 0 -73.5 -12t-53.5 -30t-36 -48.5t-23 -58t-12.5 -68t-5.5 -69t-1 -70.5q0 -82 21.5 -182t58.5 -191.5t95.5 -153t123.5 -61.5q41 0 73 11.5t53 28
t35.5 47t22.5 56t12 67.5t4.5 70t0.5 74q0 82 -18.5 179.5t-53 191.5t-93.5 156.5t-130 62.5z" />
    <glyph glyph-name="question" unicode="?" horiz-adv-x="1083" 
d="M309 1085q-21 -53 -60.5 -80.5t-84.5 -27.5q-64 0 -105.5 48.5t-23.5 125.5q21 97 104.5 171t188.5 109t211 35q216 0 365 -104t149 -248q0 -81 -35.5 -151t-92.5 -121.5t-126 -99t-137.5 -93.5t-125.5 -94.5t-92.5 -112t-35.5 -135.5h-121q-12 0 -20 8.5t-7 20.5
q5 71 34.5 136t72.5 116t94 101.5t101 103.5t91 110.5t66.5 134.5t25.5 164q0 74 -54.5 127t-121.5 53q-54 0 -92.5 -17t-69 -64t-44 -77t-42.5 -108q-8 -20 -12 -31zM334 -39q-56 0 -94.5 38.5t-38.5 94.5t38.5 94.5t94.5 38.5t94.5 -38.5t38.5 -94.5t-38.5 -94.5
t-94.5 -38.5z" />
    <glyph glyph-name="at" unicode="@" horiz-adv-x="1722" 
d="M850 -39q-154 0 -300.5 51.5t-259 140t-181 216.5t-68.5 272q0 160 72 303t189 241t269 155t310 57q214 0 399.5 -87.5t293 -230.5t107.5 -303q0 -87 -26.5 -165.5t-69 -135t-96 -98.5t-109.5 -63t-106 -21q-131 0 -195.5 83.5t-64.5 227.5q-6 -39 -15.5 -75.5t-30 -81.5
t-48 -77.5t-72.5 -54.5t-100 -22q-48 0 -95 12t-93.5 40.5t-81.5 70t-57 106t-22 142.5q0 143 112 256.5t269 113.5q96 0 162.5 -54t75.5 -114v144q0 26 26 26h162q27 0 27 -26q0 -59 -1.5 -129t-2.5 -116.5t-1.5 -100.5t0.5 -88.5t4 -70.5t8.5 -58t14 -40t21.5 -26t31 -8
q62 0 95.5 112t33.5 281q0 78 -14.5 152t-53 151.5t-98.5 135t-158.5 94t-224.5 36.5q-154 0 -270.5 -51.5t-187.5 -145t-106.5 -218.5t-35.5 -279q0 -91 20.5 -178.5t65 -167.5t108.5 -140t157.5 -96t205.5 -36q290 0 461 157q13 13 32 6l27 -12q9 -3 9.5 -9.5t-5.5 -12.5
q-99 -92 -234.5 -141.5t-283.5 -49.5zM801 977q-50 0 -86 -36t-53 -91.5t-24.5 -107.5t-6.5 -99q3 -125 43 -204t106 -79q57 0 98.5 54t60.5 134t19 173q0 108 -44 182t-113 74z" />
    <glyph glyph-name="A" unicode="A" horiz-adv-x="1566" 
d="M47 0q-18 0 -16 12q2 14 26 27q59 31 113.5 118t128.5 271l342 856q-29 60 -59.5 89.5t-69.5 29.5q-14 0 -19.5 7.5t-0.5 15.5t18 8h377q15 0 22 -17q144 -401 148 -411l219 -578q20 -50 49.5 -114t85 -154t98.5 -121q34 -22 26 -34q-3 -5 -13 -5h-525q-45 0 -8 29
q95 89 -12 377h-623q-90 -265 70 -377q15 -9 13 -19t-23 -10h-367zM377 467h577l-204 539q-74 199 -76 204q-36 -90 -102.5 -258.5t-117.5 -296t-77 -188.5z" />
    <glyph glyph-name="B" unicode="B" horiz-adv-x="1308" 
d="M57 1395q-19 29 -17 34t17 5h639q96 0 178.5 -19t150 -57.5t106 -105.5t38.5 -156q0 -115 -62 -195.5t-169 -122.5q71 -15 129.5 -41.5t107.5 -69t76 -106t27 -143.5q0 -90 -33 -163t-86.5 -119.5t-125 -78t-145.5 -44.5t-151 -13h-680q-25 0 -5 31q1 2 2.5 4t2.5 4
q26 43 44.5 102.5t25.5 119t9.5 97.5t2.5 70v578q0 32 -2.5 70t-9.5 97.5t-25.5 119t-44.5 102.5zM659 737h-213v-676h213q134 0 223 94.5t89 264.5q0 159 -87.5 238t-224.5 79zM618 1372h-172v-573h172q122 0 183 82.5t61 216.5q0 130 -60 202t-184 72z" />
    <glyph glyph-name="C" unicode="C" horiz-adv-x="1449" 
d="M766 -41q-155 0 -288 56.5t-226.5 155.5t-147 239t-53.5 303q0 217 91 389t254.5 268t369.5 96q229 0 408 -110t221 -269q26 -97 -19 -157t-119 -60q-48 0 -89 30.5t-60 90.5q-19 63 -54 126.5t-86.5 125t-125 100.5t-154.5 39q-84 0 -151.5 -41t-108.5 -108.5
t-62.5 -147t-21.5 -161.5q0 -108 18 -209t61.5 -200t108.5 -172t167 -118t229 -45q121 0 256 62t198 153q11 17 27 17q12 0 17.5 -12t-1.5 -27q-23 -46 -63 -97.5t-102.5 -109t-135 -102.5t-167 -75t-191.5 -30z" />
    <glyph glyph-name="D" unicode="D" horiz-adv-x="1419" 
d="M57 1395q-19 29 -17 34t17 5h639q133 0 255.5 -45.5t221 -132t157.5 -226.5t59 -315q0 -145 -39 -265.5t-105 -202.5t-155 -138.5t-188 -82.5t-206 -26h-639q-25 0 -5 31q1 2 2.5 4t2.5 4q26 43 44.5 102.5t25.5 119t9.5 97.5t2.5 70v578q0 32 -2.5 70t-9.5 97.5
t-25.5 119t-44.5 102.5zM618 1372h-172v-1311h172q209 0 336 173t127 483q0 301 -128 478t-335 177z" />
    <glyph glyph-name="E" unicode="E" horiz-adv-x="1222" 
d="M57 1395q-19 29 -17 34t17 5h992q43 0 51 -29q56 -217 63 -266q3 -26 -6 -39t-24 -13q-19 0 -27 15q-74 133 -175.5 201.5t-248.5 68.5h-236v-624h23q73 0 130 18t96 52.5t64 71t46 85.5q10 22 22 22q15 0 15 -16v-528q0 -17 -15 -17q-12 0 -22 23q-21 49 -46 85.5
t-64 71t-96 52.5t-130 18h-23v-625h265q147 0 248 69t176 202q7 14 26 14q15 0 24.5 -12.5t6.5 -38.5q-5 -36 -15 -78.5t-28 -110t-21 -77.5q-8 -29 -51 -29h-1020q-25 0 -5 31q1 2 2.5 4t2.5 4q26 43 44.5 102.5t25.5 119t9.5 97.5t2.5 70v578q0 32 -2.5 70t-9.5 97.5
t-25.5 119t-44.5 102.5z" />
    <glyph glyph-name="F" unicode="F" horiz-adv-x="1193" 
d="M78 0q-25 0 -5 31q1 2 2.5 4t2.5 4q26 43 44.5 102.5t25.5 119t9.5 97.5t2.5 70v578q0 32 -2.5 70t-9.5 97.5t-25.5 119t-44.5 102.5q-19 29 -17 34t17 5h991q43 0 51 -29q5 -19 16.5 -62t19 -71.5t16 -66.5t12.5 -66q3 -26 -6.5 -39t-24.5 -13q-19 0 -27 15
q-74 133 -175.5 201.5t-248.5 68.5h-235v-667h22q73 0 130 18t96 52.5t64 71t46 85.5q10 22 23 22q14 0 14 -16v-528q0 -17 -14 -17q-13 0 -23 23q-21 49 -46 85.5t-64 71t-96 52.5t-130 18h-22v-215q0 -32 2.5 -70t9.5 -97.5t25.5 -119t44.5 -102.5q2 -4 7 -12
q10 -13 9.5 -20t-18.5 -7h-469z" />
    <glyph glyph-name="G" unicode="G" horiz-adv-x="1605" 
d="M61 713q0 217 91 389t254.5 268t369.5 96q117 0 222.5 -32t182.5 -86.5t131.5 -121t80.5 -139.5q29 -83 -15 -141.5t-118 -58.5q-49 0 -94 34.5t-70 102.5q-60 164 -173 261t-245 97q-80 0 -143.5 -44t-102 -117.5t-58.5 -161.5t-20 -182q0 -92 26 -189.5t77 -188
t120 -162t163 -114.5t198 -43q101 0 154 65t53 171q0 84 -9 120q-16 64 -79 166q-19 33 -15 39q3 4 15 4h502q17 0 17.5 -8.5t-10.5 -24.5q-1 -2 -1.5 -3.5t-1.5 -3t-2 -3.5q-22 -35 -37.5 -70t-25.5 -82.5t-15.5 -77.5t-7.5 -97.5t-2.5 -98t0 -123.5t0.5 -133q0 -29 -8 -45
t-19 -16q-10 0 -23 16q-1 1 -13.5 18t-16 21.5t-16 20.5t-19 21.5t-19.5 18t-23 18t-23.5 12.5t-27 9.5t-28.5 2.5q-25 0 -59.5 -16.5t-74 -39.5t-86 -46t-110 -39.5t-131.5 -16.5q-155 0 -288 56.5t-226.5 155.5t-147 239t-53.5 303z" />
    <glyph glyph-name="H" unicode="H" horiz-adv-x="1509" 
d="M59 1395q-18 29 -18 32q0 7 18 7h469q18 0 18.5 -7t-9.5 -20q-5 -8 -7 -12q-34 -56 -54 -145.5t-23.5 -142.5t-3.5 -101v-258h614v258q0 32 -2.5 70t-9.5 97.5t-25.5 119t-44.5 102.5q-18 29 -18 32q0 7 18 7h469q18 0 18.5 -7t-9.5 -20q-5 -8 -7 -12
q-26 -43 -44.5 -102.5t-25.5 -119t-9.5 -97.5t-2.5 -70v-578q0 -32 2.5 -70t9.5 -97.5t25.5 -119t44.5 -102.5q2 -4 7 -12q10 -13 9.5 -20t-18.5 -7h-469q-13 0 -16 4t-1 8t10 16l1.5 3t1.5 2.5l2 3t2 2.5q26 43 44.5 102.5t25.5 119t9.5 97.5t2.5 70v258h-614v-258
q0 -48 3.5 -101t23.5 -142.5t54 -145.5q2 -4 7 -12q10 -13 9.5 -20t-18.5 -7h-469q-13 0 -16 4t-1 8t10 16l1.5 3t1.5 2.5l2 3t2 2.5q26 43 44.5 102.5t25.5 119t9.5 97.5t2.5 70v578q0 32 -2.5 70t-9.5 97.5t-25.5 119t-44.5 102.5z" />
    <glyph glyph-name="I" unicode="I" horiz-adv-x="585" 
d="M57 0q-25 0 -5 31q1 2 2.5 4t2.5 4q26 43 44.5 102.5t25.5 119t9.5 97.5t2.5 70v578q0 32 -2.5 70t-9.5 97.5t-25.5 119t-44.5 102.5q-19 29 -17 34t17 5h469q18 0 18.5 -7t-9.5 -20q-5 -8 -7 -12q-26 -43 -44.5 -102.5t-25.5 -119t-9.5 -97.5t-2.5 -70v-578
q0 -32 2.5 -70t9.5 -97.5t25.5 -119t44.5 -102.5q2 -4 7 -12q10 -13 9.5 -20t-18.5 -7h-469z" />
    <glyph glyph-name="J" unicode="J" horiz-adv-x="595" 
d="M-121 -346q-15 0 -20 7.5t1 17t19 14.5q85 33 139 85t86 141.5t44 208.5t12 300v578q0 32 -2.5 70t-9.5 97.5t-25.5 119t-44.5 102.5q-19 29 -17 34t17 5h469q18 0 18.5 -7t-9.5 -20q-5 -8 -7 -12q-26 -43 -44.5 -102.5t-25.5 -119t-9.5 -97.5t-2.5 -70v-578
q0 -774 -588 -774z" />
    <glyph glyph-name="K" unicode="K" horiz-adv-x="1345" 
d="M57 1395q-19 29 -17 34t17 5h469q18 0 18.5 -7t-9.5 -20q-5 -8 -7 -12q-26 -43 -44.5 -102.5t-25.5 -119t-9.5 -97.5t-2.5 -70v-162q54 19 108 63t97 98.5t76.5 115.5t50.5 115t15 97.5t-27 61.5q-16 11 -12.5 19.5t24.5 8.5h383q12 0 16 -6t-1 -13.5t-17 -10.5
q-30 -7 -80 -55.5t-111 -118t-129 -143.5t-151.5 -143t-159.5 -104h78q35 0 69 -8t61 -20t55 -33.5t48.5 -40.5t44 -49.5t38.5 -52t35.5 -57t31 -55.5t29 -56t26.5 -51q114 -215 269 -377q29 -29 -13 -29h-114q-52 0 -95 6t-73.5 13.5t-57.5 25t-43.5 31t-36 41t-29 44
t-29.5 52.5t-31 55q-26 46 -55 117t-51.5 127.5t-53.5 113.5t-77.5 97t-107.5 57v-352q0 -32 2.5 -70t9.5 -97.5t25.5 -119t44.5 -102.5q2 -4 7 -12q10 -13 9.5 -20t-18.5 -7h-469q-25 0 -5 31q1 2 2.5 4t2.5 4q26 43 44.5 102.5t25.5 119t9.5 97.5t2.5 70v578q0 32 -2.5 70
t-9.5 97.5t-25.5 119t-44.5 102.5z" />
    <glyph glyph-name="L" unicode="L" horiz-adv-x="1230" 
d="M57 1395q-19 29 -17 34t17 5h469q18 0 18.5 -7t-9.5 -20q-5 -8 -7 -12q-26 -43 -44.5 -102.5t-25.5 -119t-9.5 -97.5t-2.5 -70v-918h187q113 0 207.5 28t156.5 73.5t101.5 92t60.5 95.5q10 22 21 22q10 0 10 -16v-340q0 -43 -37 -43h-1096q-25 0 -5 31q1 2 2.5 4t2.5 4
q26 43 44.5 102.5t25.5 119t9.5 97.5t2.5 70v578q0 32 -2.5 70t-9.5 97.5t-25.5 119t-44.5 102.5z" />
    <glyph glyph-name="M" unicode="M" horiz-adv-x="1693" 
d="M57 1395q-19 29 -17 34t17 5h383q16 0 23 -17q117 -298 395 -989q78 202 225 584t156 405q1 7 8 12t13 5h376q18 0 18.5 -7t-9.5 -20q-5 -8 -7 -12q-26 -43 -44.5 -102.5t-25.5 -119t-9.5 -97.5t-2.5 -70v-578q0 -32 2.5 -70t9.5 -97.5t25.5 -119t44.5 -102.5q2 -4 7 -12
q10 -13 9.5 -20t-18.5 -7h-469q-25 0 -5 31q3 5 5 8q26 43 44.5 102.5t25.5 119t9.5 97.5t2.5 70v825q-12 -22 -25.5 -53t-22.5 -53.5l-28 -70t-28 -70.5l-379 -951q-6 -16 -23 -16h-34q-1 2 -4 5t-4.5 5.5t-2.5 5.5l-387 951q-15 36 -38.5 94.5t-39.5 96t-32 65.5v-834
q0 -32 2.5 -70t9.5 -97.5t25.5 -119t44.5 -102.5q2 -4 7 -12q10 -13 9.5 -20t-18.5 -7h-224q-25 0 -5 31q1 2 2.5 4t2.5 4q26 43 44.5 102.5t25.5 119t9.5 97.5t2.5 70v578q0 32 -2.5 70t-9.5 97.5t-25.5 119t-44.5 102.5z" />
    <glyph glyph-name="N" unicode="N" horiz-adv-x="1320" 
d="M57 0q-25 0 -5 31q1 2 2.5 4t2.5 4q26 43 44.5 102.5t25.5 119t9.5 97.5t2.5 70v578q0 32 -2.5 70t-9.5 97.5t-25.5 119t-44.5 102.5q-19 29 -17 34t17 5h363q19 0 26 -17q61 -108 306.5 -550.5t363.5 -651.5q0 -1 1 -3t1 -3v797q0 32 -2.5 70t-9.5 97.5t-25.5 119
t-44.5 102.5q-2 4 -7 12q-10 13 -9.5 20t18.5 7h224q25 0 5 -31q-3 -5 -5 -8q-26 -43 -44.5 -102.5t-25.5 -119t-9.5 -97.5t-2.5 -70v-578q0 -32 2.5 -70t9.5 -97.5t25.5 -119t44.5 -102.5q19 -29 17 -34t-17 -5h-326q-15 0 -25 16l-553 990q-106 196 -157 268v-846
q0 -32 2.5 -70t9.5 -97.5t25.5 -119t44.5 -102.5q2 -4 7 -12q10 -13 9.5 -20t-18.5 -7h-224z" />
    <glyph glyph-name="O" unicode="O" horiz-adv-x="1529" 
d="M51 713q0 217 91 389t254.5 268t369.5 96q205 0 367.5 -96t254 -268t91.5 -389q0 -163 -53.5 -303t-147.5 -239t-226.5 -155.5t-285.5 -56.5q-155 0 -288 56.5t-226.5 155.5t-147 239t-53.5 303zM633 1376q-79 -16 -138 -65.5t-92.5 -121t-48 -163t-10.5 -190.5t25 -203
q19 -96 49 -182t72.5 -161t93.5 -129.5t115 -86t135 -31.5q31 0 65 6q80 15 139 65t92 122t48 163.5t10.5 190t-25.5 201.5q-24 121 -66 226.5t-100 187.5t-135 129.5t-164 47.5q-30 0 -65 -6z" />
    <glyph glyph-name="P" unicode="P" horiz-adv-x="1236" 
d="M57 1395q-19 29 -17 34t17 5h645q77 0 148 -13t139 -45t117.5 -80.5t80 -124t30.5 -170.5t-30 -170.5t-80 -124t-118 -80.5t-139 -45.5t-148 -13.5h-256v-139q0 -32 2.5 -70t9.5 -97.5t25.5 -119t44.5 -102.5q2 -4 7 -12q10 -13 9.5 -20t-18.5 -7h-469q-25 0 -5 31
q1 2 2.5 4t2.5 4q26 43 44.5 102.5t25.5 119t9.5 97.5t2.5 70v578q0 32 -2.5 70t-9.5 97.5t-25.5 119t-44.5 102.5zM625 1372h-179v-743h179q131 0 207.5 96t76.5 279q0 182 -76 275t-208 93z" />
    <glyph glyph-name="Q" unicode="Q" horiz-adv-x="1550" 
d="M61 713q0 217 91 389t254.5 268t369.5 96q205 0 367.5 -96t254 -268t91.5 -389q0 -163 -53.5 -303t-147.5 -239t-226.5 -155.5t-285.5 -56.5q-35 0 -53 2q121 -70 174 -91q79 -30 154 -30q106 0 181.5 24.5t156.5 86.5q21 16 32 8q10 -9 19.5 -32.5t9.5 -49.5
q0 -134 -98.5 -218.5t-243.5 -84.5q-69 0 -136.5 29.5t-119 73t-109.5 95t-109 95t-118 73t-135 29.5q-119 0 -213 -67q-8 -6 -14 -2t0 14q23 37 99.5 78t174.5 51q-171 93 -269 269t-98 401zM643 1376q-79 -16 -138 -65.5t-92.5 -121t-48 -163t-10.5 -190.5t25 -203
q19 -96 49 -182t72.5 -161t93.5 -129.5t115 -86t135 -31.5q30 0 65 6q80 15 139 65t92.5 122t48.5 163t10.5 190t-25.5 202q-24 121 -66 226.5t-100 187.5t-135 129.5t-164 47.5q-31 0 -66 -6z" />
    <glyph glyph-name="R" unicode="R" horiz-adv-x="1406" 
d="M59 0q-13 0 -16 4t-1 8t10 16l1.5 3t1.5 2.5l2 3t2 2.5q26 43 44.5 102.5t25.5 119t9.5 97.5t2.5 70v578q0 32 -2.5 70t-9.5 97.5t-25.5 119t-44.5 102.5q-18 29 -18 32q0 7 18 7h646q79 0 148 -11t137 -39.5t116 -73.5t78 -117.5t30 -166.5t-27.5 -167t-77.5 -119.5
t-109.5 -74.5t-133.5 -42q79 -25 131 -76.5t99 -140.5q115 -218 268 -377q29 -29 -12 -29h-101q-44 0 -81.5 4t-66.5 9t-54.5 16.5t-43 20t-35 27t-28 30t-24 36t-20.5 38t-21 43t-21 44.5q-11 22 -27.5 58t-25.5 55t-24 48t-26.5 45t-29.5 37.5t-36 33t-43 25.5t-53 20.5
t-64 11.5t-78 6v-180q0 -48 3.5 -101t23.5 -142.5t54 -145.5q2 -4 7 -12q10 -13 9.5 -20t-18.5 -7h-469zM627 1372h-178v-702h178q133 0 206.5 87t73.5 271q0 344 -280 344z" />
    <glyph glyph-name="S" unicode="S" horiz-adv-x="1298" 
d="M45 344q-17 79 28.5 132.5t114.5 53.5q47 0 91 -30.5t73 -93.5q2 -5 13 -30t18 -40t22 -44.5t27.5 -50t33 -48.5t39.5 -47.5t45.5 -41t53.5 -34t60.5 -21t68.5 -8.5q96 0 156.5 45t60.5 131q0 65 -48 129t-125 119.5t-170 112.5t-186 117.5t-170 123.5t-125 142t-48 163
q0 141 141 241.5t369 100.5q136 0 262.5 -43t213.5 -118t110 -164q26 -96 -20.5 -153.5t-119.5 -57.5q-51 0 -92 29t-55 85q-19 69 -50 127.5t-75.5 107t-106.5 76t-135 27.5q-57 0 -96 -38.5t-39 -90.5q0 -64 30 -123t80.5 -106.5t115.5 -93t137.5 -87.5l145 -84
t137.5 -87.5t115.5 -94t80.5 -108.5t30 -125q0 -89 -50 -163.5t-131 -122t-179 -73.5t-199 -26q-106 0 -206.5 26.5t-175.5 68.5t-134.5 93.5t-93.5 102.5t-43 94z" />
    <glyph glyph-name="T" unicode="T" horiz-adv-x="1298" 
d="M31 991q-11 0 -11 17v381q0 45 37 45h1184q37 0 37 -45v-381q0 -17 -10 -17q-11 0 -21 23q-3 7 -10 23q-15 37 -25 58t-32.5 61t-43.5 65t-56 57t-72.5 50t-91 31t-113.5 13v-944q0 -32 2.5 -70t9.5 -97.5t25.5 -119t44.5 -102.5q2 -4 7 -12q10 -13 9.5 -20t-18.5 -7
h-469q-25 0 -5 31q3 5 5 8q26 43 44.5 102.5t25.5 119t9.5 97.5t2.5 70v944q-84 0 -153 -24.5t-111.5 -57.5t-79.5 -84t-54.5 -87t-37.5 -83q-6 -15 -9 -22q-10 -23 -20 -23z" />
    <glyph glyph-name="U" unicode="U" horiz-adv-x="1333" 
d="M59 1395q-3 6 -10 16q-9 13 -8 18t18 5h461q24 0 10 -24q-5 -10 -8 -15q-20 -38 -34.5 -74.5t-23.5 -86t-14.5 -79.5t-7.5 -98t-2.5 -95.5t0 -119.5t0.5 -125q0 -277 8 -364q19 -207 107 -281q62 -52 168 -52q75 0 132 15.5t111.5 60.5t89.5 121t56 202t21 298
q0 25 0.5 100t0 102.5t-2 91.5t-4.5 93.5t-9 80t-14.5 81t-22 66t-30.5 63.5q-2 3 -5.5 8t-5.5 8.5t-4 7.5t-2 6t1.5 4.5t5.5 3.5t10 1h223q13 0 16 -5t0.5 -10t-9.5 -16q-3 -5 -5 -8q-18 -28 -31 -63.5t-22 -67.5t-15 -86t-9 -89t-4.5 -109t-1.5 -113.5t0.5 -134.5
t0.5 -142q0 -299 -119.5 -465t-351.5 -166q-159 0 -274 43t-183.5 126.5t-100.5 197t-32 264.5q0 71 1.5 184.5t1.5 166.5t-3 132.5t-11 125.5t-23.5 99t-39.5 97z" />
    <glyph glyph-name="V" unicode="V" horiz-adv-x="1531" 
d="M57 1395q-34 22 -26 34q4 5 14 5h524q22 0 24 -8t-15 -21q-50 -42 -46 -139.5t66 -259.5l217 -578q18 -48 30.5 -80.5t20.5 -53.5t25 -65q71 169 137 340q21 55 33 87t33.5 95.5t33 106t25.5 105t17 107.5t1.5 99t-14.5 94t-38 78t-62 64q-16 9 -13.5 19t23.5 10h418
q11 0 14.5 -4.5t-0.5 -11.5t-14 -15q-57 -47 -108 -142t-115 -255l-398 -992q-4 -14 -20 -14h-164q-17 0 -23 16q-127 354 -149 412l-217 578q-20 49 -50 113.5t-85.5 154.5t-98.5 121z" />
    <glyph glyph-name="W" unicode="W" horiz-adv-x="2404" 
d="M57 1395q-34 22 -26 34q4 5 14 5h524q22 0 24 -8t-15 -21q-50 -42 -46 -139.5t66 -259.5l217 -578q18 -48 30.5 -80.5t20.5 -53.5t25 -65q178 446 291 725l-19 52q-20 50 -49.5 114t-85 154t-98.5 121q-34 22 -26 34q4 5 14 5h524q45 0 8 -29q-50 -42 -46 -139.5
t66 -259.5l218 -578q22 -58 38.5 -102.5t36.5 -96.5q82 196 138 340q21 55 33 87.5t33.5 95t33 105.5t25 105t16.5 107.5t1.5 99.5t-14.5 94t-38 78t-62 64q-16 9 -13.5 19t23.5 10h418q11 0 14.5 -4.5t-0.5 -11.5t-14 -15q-57 -47 -108 -142t-115 -255l-397 -992
q-1 -6 -8 -10t-13 -4h-164q-16 0 -22 16q-101 280 -150 412l-170 451l-288 -725l-58 -140q-4 -14 -20 -14h-164q-17 0 -23 16q-127 354 -149 412l-217 578q-20 49 -50 113.5t-85.5 154.5t-98.5 121z" />
    <glyph glyph-name="X" unicode="X" horiz-adv-x="1415" 
d="M47 0q-24 0 -9 18q5 6 15 13q69 48 144.5 143.5t177.5 253.5l178 277l-184 301q-125 202 -192.5 287.5t-135.5 119.5q-12 6 -10.5 13.5t20.5 7.5h524q16 0 17 -7.5t-8 -13.5q-26 -22 -22.5 -78t24 -119.5t49.5 -117.5q130 -229 186 -324q279 485 109 631q-13 9 -9 19
t25 10h418q24 0 9 -18l-15 -13q-69 -48 -144.5 -144.5t-175.5 -252.5l-184 -287q50 -87 174 -291q113 -185 186 -274.5t148 -126.5q33 -16 20 -24q-4 -3 -16 -3h-524q-42 0 -8 31q85 78 -107 387q-4 7 -6 10l-135 223q-271 -478 -103 -622q12 -9 7.5 -19t-25.5 -10h-418z
" />
    <glyph glyph-name="Y" unicode="Y" horiz-adv-x="1419" 
d="M41 1413q-12 6 -10.5 13.5t20.5 7.5h524q16 0 17 -7.5t-8 -13.5q-27 -23 -25.5 -78.5t20 -119t46.5 -117.5q170 -319 215 -398q44 84 77 155t62.5 158.5t37.5 156t-9.5 132.5t-65.5 103q-14 9 -10.5 19t24.5 10h418q24 0 12 -16q-5 -7 -16 -15q-66 -48 -134 -143
t-159 -254l-207 -361v-217q0 -32 2.5 -70t9.5 -97.5t25.5 -119t44.5 -102.5q2 -4 7 -12q10 -13 9.5 -20t-18.5 -7h-469q-13 0 -16 4t-1 8t10 16l1.5 3t1.5 2.5l2 3t2 2.5q26 43 44.5 102.5t25.5 119t9.5 97.5t2.5 70v213l-209 365q-116 202 -181 287.5t-132 119.5z" />
    <glyph glyph-name="Z" unicode="Z" horiz-adv-x="1286" 
d="M41 0q-13 0 -16.5 8.5t4.5 20.5l864 1343h-291q-147 0 -248.5 -68.5t-175.5 -201.5q-8 -15 -26 -15q-15 0 -24.5 13t-6.5 39q7 49 63 266q8 29 52 29h987q12 0 15 -8.5t-5 -20.5l-864 -1344h415q147 0 248 69t176 202q7 14 27 14q15 0 24.5 -12.5t6.5 -38.5
q-5 -36 -15 -78.5t-28 -110t-21 -77.5q-8 -29 -51 -29h-1110z" />
    <glyph glyph-name="a" unicode="a" horiz-adv-x="1185" 
d="M41 360q0 73 30 134.5t76.5 101t106 67t116.5 39t109 11.5q189 0 285 -111q-2 218 -50 319t-163 101q-32 0 -56.5 -11.5t-42.5 -34.5t-28.5 -42.5t-23.5 -50t-19 -41.5q-28 -54 -69 -81.5t-83 -27.5q-58 0 -93.5 40.5t-20.5 100.5q15 61 64.5 105t117 65t128 30t120.5 9
q77 0 148 -15t142 -52.5t122 -95t82 -149.5t28 -208q-11 -385 82 -524q12 -17 14.5 -25.5t-1.5 -11t-15 -2.5h-359q-28 0 -28 29v104q-83 -133 -285 -133q-196 0 -315 103t-119 241v16zM348 369q0 -73 22.5 -139.5t72 -113t116.5 -46.5q47 0 82.5 18t57 52.5t35 70
t19.5 85.5t7.5 83t1.5 78q-3 25 -15 55t-34.5 61.5t-63.5 52.5t-92 21q-82 0 -145.5 -71.5t-63.5 -206.5z" />
    <glyph glyph-name="b" unicode="b" horiz-adv-x="1331" 
d="M37 1395q-3 4 -6.5 9.5t-5.5 8t-4 6t-1.5 5.5t2 4t5.5 3.5t10 2.5l375 92q14 4 14 -13v-503q124 73 279 73q256 0 420.5 -158t164.5 -405q0 -245 -164 -403t-417 -158q-208 0 -363 127q-70 -24 -213 -119q-14 -7 -14 8v1031q0 32 -2.5 70t-9.5 97.5t-25.5 119
t-44.5 102.5zM426 440q7 -95 48.5 -188.5t117.5 -161t166 -67.5q237 0 237 374q0 115 -20.5 222t-61 198.5t-110 147t-158.5 55.5q-60 0 -102.5 -26.5t-66.5 -76t-36 -110t-14 -139.5v-228z" />
    <glyph glyph-name="c" unicode="c" horiz-adv-x="1159" 
d="M625 -43q-111 0 -217 42.5t-187 115.5t-130.5 179t-49.5 226q0 121 44.5 226.5t120.5 179t179.5 115.5t218.5 42q179 0 318.5 -71.5t185.5 -198.5q29 -79 -13 -137t-108 -58q-41 0 -75.5 27.5t-53.5 83.5q-14 43 -27 75t-39.5 76.5t-57 73t-78 49.5t-103.5 21
q-85 0 -148 -102.5t-63 -225.5q-1 -95 12.5 -178t45 -156.5t79 -125.5t119.5 -82.5t162 -30.5q99 0 198 51.5t150 124.5q13 19 26 10.5t5 -26.5q-19 -36 -47.5 -75t-76.5 -85t-103 -82t-131 -60t-156 -24z" />
    <glyph glyph-name="d" unicode="d" horiz-adv-x="1339" 
d="M41 520q0 121 43.5 227t117 179t172.5 115t208 42q167 0 301 -108v31q0 32 -2.5 70t-9.5 97.5t-25.5 119t-44.5 102.5q-3 4 -6.5 9.5t-5.5 8t-4 6t-1.5 5.5t2 4t5.5 3.5t10 2.5l373 92q16 3 16 -13v-1085q0 -32 2.5 -70t9.5 -97.5t25.5 -119t44.5 -102.5q2 -4 7 -12
q10 -13 9.5 -20t-18.5 -7h-369q-18 0 -18 16v50q-89 -107 -262 -107q-164 0 -296.5 71.5t-208 200t-75.5 289.5zM569 1020q-60 0 -103.5 -23t-67.5 -57t-38 -87.5t-18 -100.5t-4 -109q0 -68 11.5 -147t38 -164t63.5 -153t93.5 -112t123.5 -44q62 0 105.5 24.5t66 69.5t32 93
t11.5 109v119q-5 94 -24 189t-54.5 186.5t-96.5 149t-139 57.5z" />
    <glyph glyph-name="e" unicode="e" horiz-adv-x="1169" 
d="M639 -41q-165 0 -301.5 71t-216.5 200t-80 290q0 121 43 227t116 179t171.5 115t206.5 42q231 0 384 -155t164 -393q1 -15 -8 -25t-24 -10h-740q11 -54 29.5 -103.5t51.5 -101.5t76 -89t107.5 -61t141.5 -24q215 0 348 176q12 14 23.5 7t5.5 -21q-15 -32 -38.5 -68.5
t-68 -84t-97.5 -84t-131 -62t-163 -25.5zM342 563h344q73 0 102 29t29 123q0 82 -28 150t-85 111.5t-133 43.5q-61 0 -107.5 -33t-73 -88.5t-39.5 -120t-13 -135.5q0 -18 4 -80z" />
    <glyph glyph-name="f" unicode="f" horiz-adv-x="694" 
d="M37 979v29q0 16 16 16h99q4 103 21.5 179.5t53.5 138t99 93t151 31.5q103 0 218.5 -53.5t158.5 -142.5q25 -54 10 -96.5t-54.5 -68.5t-86.5 -26q-44 0 -81.5 26t-55.5 79q-2 5 -10 29t-11 32t-11.5 30t-14.5 31.5t-16.5 26.5t-20.5 25t-23.5 17.5t-29 13.5t-33.5 4
q-30 0 -56.5 -16t-42.5 -48.5t-16.5 -75.5t26.5 -103.5t81 -125.5h235q16 0 16 -16v-29q0 -16 -16 -16h-186v-535q0 -32 2.5 -70t9.5 -97.5t25.5 -119t44.5 -102.5q2 -4 7 -12q10 -13 9.5 -20t-18.5 -7h-469q-25 0 -5 31q3 5 5 8q26 43 44.5 102.5t25.5 119t9.5 97.5t2.5 70
v535h-97q-16 0 -16 16z" />
    <glyph glyph-name="g" unicode="g" horiz-adv-x="1173" 
d="M16 -301q-25 88 23 146.5t121 58.5q47 0 87 -29t58 -86q35 -111 60 -155q75 -130 237 -130q131 0 206 102q60 82 52 180q-9 97 -83 136q-36 19 -83 19q-39 0 -145.5 -27t-183.5 -27q-94 0 -167 38.5t-73 101.5q0 44 44 71t110 35q-105 69 -165.5 181t-60.5 249
q0 150 70.5 269t193 185t273.5 66q44 0 90 -6q53 88 158 146t213 57q95 -2 133 -65.5t0.5 -126t-125.5 -60.5q-34 0 -108 24t-120 23q-43 -4 -71 -16q165 -48 265.5 -181.5t100.5 -314.5q0 -223 -149.5 -369t-376.5 -149q-74 0 -126 9.5t-83.5 19.5t-54.5 10q-47 0 -78 -17
t-31 -49q0 -30 44.5 -51t117.5 -18q44 2 115.5 21t154 37t156.5 18q161 0 254.5 -66t93.5 -160q0 -69 -37 -129t-95.5 -100.5t-131.5 -70t-143.5 -43t-132.5 -13.5q-93 0 -188 15t-184 44.5t-153 80.5t-82 116zM616 104q61 0 105.5 20.5t69 52t39 80t18.5 92.5t4 102
q0 65 -11 139t-36 152t-59.5 140t-87 102t-113.5 40q-56 0 -96.5 -21t-63 -52.5t-35.5 -80.5t-16.5 -92.5t-3.5 -101.5q0 -78 17 -169t49.5 -181t90 -152.5t129.5 -69.5z" />
    <glyph glyph-name="h" unicode="h" horiz-adv-x="1400" 
d="M68 0q-25 0 -5 31q3 5 5 8q26 43 44.5 102.5t25.5 119t9.5 97.5t2.5 70v578q0 32 -2.5 70t-9.5 97.5t-25.5 119t-44.5 102.5q-3 4 -6.5 9.5t-5.5 8t-4 6t-1.5 5.5t2 4t5.5 3.5t10 2.5l372 92q17 3 17 -13v-503q110 73 248 73q247 0 412 -157.5t165 -397.5q0 -369 76 -479
q26 -40 21 -46q-3 -3 -17 -3h-469q-10 0 -14.5 2.5t-3 8t3.5 9.5t7.5 11t6.5 8q34 55 54 149.5t23 146t3 89.5q0 175 -30.5 305t-102.5 210.5t-181 80.5q-57 0 -97 -25t-61.5 -74t-31.5 -106.5t-12 -136.5v-250q0 -32 2.5 -70t9.5 -97.5t25.5 -119t44.5 -102.5q2 -4 7 -12
q10 -13 9.5 -20t-18.5 -7h-469z" />
    <glyph glyph-name="i" unicode="i" horiz-adv-x="606" 
d="M68 0q-25 0 -5 31q3 5 5 8q26 43 44.5 102.5t25.5 119t9.5 97.5t2.5 70v131q0 32 -2.5 70t-9.5 97.5t-25.5 119t-44.5 102.5q-3 4 -6.5 9.5t-5.5 8t-4 6t-1.5 5.5t2 4t5.5 3.5t10 2.5l374 92q15 4 15 -12v-639q0 -32 2.5 -70t9.5 -97.5t25.5 -119t44.5 -102.5q2 -4 7 -12
q10 -13 9.5 -20t-18.5 -7h-469zM279 1112q-78 0 -134.5 56t-56.5 135q0 77 56.5 132.5t134.5 55.5q77 0 132.5 -55.5t55.5 -132.5q0 -79 -55.5 -135t-132.5 -56z" />
    <glyph glyph-name="j" unicode="j" horiz-adv-x="497" 
d="M-250 -268q-28 62 -14.5 109t53 75.5t86.5 28.5q43 0 79 -26t54 -79q3 -8 14.5 -44.5t17.5 -52t20.5 -45t28.5 -43.5t36.5 -26t48.5 -12q32 0 61 14.5t45.5 46.5t14.5 75.5t-38 108t-107 138.5v559q0 32 -2.5 70t-9.5 97.5t-25.5 119t-44.5 102.5q-3 4 -6.5 9.5t-5.5 8
t-4 6t-1.5 5.5t2 4t5.5 3.5t10 2.5l372 92q17 3 17 -12v-1067q0 -96 -18 -173.5t-56.5 -139t-106 -95.5t-159.5 -34q-107 0 -218.5 49.5t-148.5 124.5zM70 1303q0 77 55 132.5t133 55.5q76 0 132 -55.5t56 -132.5q0 -79 -55.5 -135t-132.5 -56q-78 0 -133 56t-55 135z" />
    <glyph glyph-name="k" unicode="k" horiz-adv-x="1204" 
d="M68 0q-25 0 -5 31q3 5 5 8q26 43 44.5 102.5t25.5 119t9.5 97.5t2.5 70v578q0 32 -2.5 70t-9.5 97.5t-25.5 119t-44.5 102.5q-3 4 -6.5 9.5t-5.5 8t-4 6t-1.5 5.5t2 4t5.5 3.5t10 2.5l372 92q17 3 17 -13v-976l2 20l143 158q81 89 115.5 147.5t31.5 89t-34 52.5
q-10 9 -4.5 14.5t16.5 5.5h346q11 0 13 -4.5t-2.5 -10t-10.5 -8.5q-123 -52 -204.5 -114.5t-211.5 -198.5l-10 -12l275 -371q145 -205 247 -278q5 -3 8.5 -7.5t5 -9t-2 -7.5t-13.5 -3h-430q-13 0 -14 7q0 7 16 13q35 18 35 43q-2 67 -276 414q-13 18 -19 25l-22 -23v-51
q0 -32 2.5 -70t9.5 -97.5t25.5 -119t44.5 -102.5q2 -4 7 -12q10 -13 9.5 -20t-18.5 -7h-469z" />
    <glyph glyph-name="l" unicode="l" horiz-adv-x="606" 
d="M68 0q-25 0 -5 31q3 5 5 8q26 43 44.5 102.5t25.5 119t9.5 97.5t2.5 70v578q0 32 -2.5 70t-9.5 97.5t-25.5 119t-44.5 102.5q-3 4 -6.5 9.5t-5.5 8t-4 6t-1.5 5.5t2 4t5.5 3.5t10 2.5l372 92q17 3 17 -13v-1085q0 -32 2.5 -70t9.5 -97.5t25.5 -119t44.5 -102.5
q2 -4 7 -12q10 -13 9.5 -20t-18.5 -7h-469z" />
    <glyph glyph-name="m" unicode="m" horiz-adv-x="2240" 
d="M68 0q-25 0 -5 31q3 5 5 8q26 43 44.5 102.5t25.5 119t9.5 97.5t2.5 70v131q0 32 -2.5 70t-9.5 97.5t-25.5 119t-44.5 102.5q-3 4 -6.5 9.5t-5.5 8t-4 6t-1.5 5.5t2 4t5.5 3.5t10 2.5l372 92q17 3 17 -12v-57q110 73 248 73q136 0 252.5 -51t195.5 -143q63 88 157.5 141
t213.5 53q247 0 412 -157.5t165 -397.5q0 -369 76 -479q26 -40 21 -46q-3 -3 -17 -3h-469q-10 0 -14.5 2.5t-3 8t3.5 9.5t7.5 11t6.5 8q34 55 54 149.5t23 146t3 89.5q0 130 -17.5 235.5t-54 188t-98 127.5t-143.5 45q-63 0 -105 -30.5t-63 -89.5t-28.5 -125.5t-6.5 -158.5
q6 -44 6 -88q0 -369 76 -479q26 -40 21 -46q-3 -3 -17 -3h-469q-10 0 -14.5 2.5t-3 8t3.5 9.5t7.5 11t6.5 8q34 55 54 149.5t23 146t3 89.5q0 175 -30.5 305t-102.5 210.5t-181 80.5q-57 0 -97 -25t-61.5 -74t-31.5 -106.5t-12 -136.5v-250q0 -32 2.5 -70t9.5 -97.5
t25.5 -119t44.5 -102.5q2 -4 7 -12q10 -13 9.5 -20t-18.5 -7h-469z" />
    <glyph glyph-name="n" unicode="n" horiz-adv-x="1421" 
d="M68 0q-25 0 -5 31q3 5 5 8q26 43 44.5 102.5t25.5 119t9.5 97.5t2.5 70v131q0 32 -2.5 70t-9.5 97.5t-25.5 119t-44.5 102.5q-3 4 -6.5 9.5t-5.5 8t-4 6t-1.5 5.5t2 4t5.5 3.5t10 2.5l372 92q17 3 17 -12v-57q110 73 248 73q247 0 412 -157.5t165 -397.5q0 -369 76 -479
q26 -40 21 -46q-3 -3 -17 -3h-469q-10 0 -14.5 2.5t-3 8t3.5 9.5t7.5 11t6.5 8q34 55 54 149.5t23 146t3 89.5q0 175 -30.5 305t-102.5 210.5t-181 80.5q-57 0 -97 -25t-61.5 -74t-31.5 -106.5t-12 -136.5v-250q0 -32 2.5 -70t9.5 -97.5t25.5 -119t44.5 -102.5q2 -4 7 -12
q10 -13 9.5 -20t-18.5 -7h-469z" />
    <glyph glyph-name="o" unicode="o" horiz-adv-x="1239" 
d="M621 -41q-164 0 -296.5 71.5t-208 200t-75.5 289.5q0 246 165 404.5t415 158.5t413.5 -158.5t163.5 -404.5q0 -245 -163.5 -403t-413.5 -158zM569 1020q-60 0 -103.5 -23t-67.5 -57t-38 -87.5t-18 -100.5t-4 -109q0 -68 11.5 -147t38 -164t63.5 -153t93.5 -112t123.5 -44
q60 0 104 23.5t68.5 58.5t39 87.5t19 99.5t4.5 105q0 70 -12 151t-39 165.5t-65 152t-95 111t-123 43.5z" />
    <glyph glyph-name="p" unicode="p" horiz-adv-x="1329" 
d="M426 639v-215q8 -68 35 -138t68 -129t101 -96.5t126 -37.5q239 0 239 374q0 115 -20.5 222t-61 198.5t-110.5 147t-160 55.5q-62 0 -105.5 -28.5t-67 -83t-33.5 -119t-11 -150.5zM707 -41q-148 0 -281 70v-47q0 -32 2.5 -70t9.5 -98t25.5 -119.5t44.5 -102.5q3 -5 7 -12
q7 -11 8.5 -15t-2 -7.5t-15.5 -3.5h-469q-12 0 -15 3.5t-1 9t10 16.5l6 9q26 43 44.5 102.5t25.5 119.5t9.5 98t2.5 70v577q0 32 -2.5 70t-9.5 97.5t-25.5 119t-44.5 102.5q-3 4 -6.5 9.5t-5.5 8t-4 6t-1.5 5.5t2 4t5.5 3.5t10 2.5l375 92q14 3 14 -12v-57q124 73 276 73
q168 0 302.5 -71.5t210 -200t75.5 -291.5q0 -245 -165 -403t-418 -158z" />
    <glyph glyph-name="q" unicode="q" horiz-adv-x="1339" 
d="M41 520q0 121 43.5 227t117 179t172.5 115t208 42q178 0 321 -120v104q0 15 17 12l372 -92q6 -1 10 -2.5t5.5 -3.5t2 -4t-1.5 -5.5t-4 -6t-5.5 -8t-6.5 -9.5q-26 -43 -44.5 -102.5t-25.5 -119t-9.5 -97.5t-2.5 -70v-577q0 -32 2.5 -70t9.5 -98t25.5 -119.5t44.5 -102.5
q18 -28 17 -32q-1 -6 -17 -6h-469q-12 0 -15.5 3.5t-2 7t8.5 15.5q2 3 3.5 6t3.5 6q26 43 44.5 102.5t25.5 119.5t9.5 98t2.5 70v100q-93 -123 -282 -123q-164 0 -296.5 71.5t-208 200t-75.5 289.5zM338 643q0 -68 11.5 -147t38 -164t63.5 -153t93.5 -112t123.5 -44
q64 0 109 21.5t69 52.5t37.5 81.5t16.5 91t3 99.5v53q-3 72 -16 150t-40.5 158.5t-64.5 144.5t-92.5 104.5t-120.5 40.5q-60 0 -103.5 -23t-67.5 -57t-38 -87.5t-18 -100.5t-4 -109z" />
    <glyph glyph-name="r" unicode="r" horiz-adv-x="1107" 
d="M68 0q-25 0 -5 31q3 5 5 8q26 43 44.5 102.5t25.5 119t9.5 97.5t2.5 70v131q0 32 -2.5 70t-9.5 97.5t-25.5 119t-44.5 102.5q-3 4 -6.5 9.5t-5.5 8t-4 6t-1.5 5.5t2 4t5.5 3.5t10 2.5l372 92q17 3 17 -12v-149q50 75 132 120t195 45q96 0 180 -59.5t109 -130.5
q26 -74 -13 -125t-104 -51q-71 0 -118 61q-10 13 -38.5 55t-46.5 64t-51 43t-69 21q-70 0 -123 -67.5t-53 -168.5v-297q0 -32 2.5 -70t9.5 -97.5t25.5 -119t44.5 -102.5q2 -4 7 -12q10 -13 9.5 -20t-18.5 -7h-469z" />
    <glyph glyph-name="s" unicode="s" horiz-adv-x="1036" 
d="M45 227q-18 63 23.5 108.5t103.5 45.5q86 0 127 -88q1 -3 11 -24.5t16 -33.5t19 -36.5t25 -40t29 -37.5t35 -36t39.5 -27.5t47 -20t52.5 -6.5q69 0 107.5 34t38.5 99q0 50 -35.5 97t-92 85.5t-125 77.5t-137.5 81t-125.5 87t-92 105.5t-35.5 127.5q0 107 107 182.5
t292 75.5q158 0 295 -69t164 -168q19 -75 -23.5 -124.5t-105.5 -49.5q-39 0 -71 22t-46 66q-32 104 -105 178t-153 74q-43 0 -63.5 -27.5t-20.5 -69.5q0 -52 36 -101.5t93 -91t126 -82.5t138.5 -84t126.5 -88.5t93 -102.5t36 -119q0 -86 -69.5 -154t-168 -100.5
t-200.5 -32.5q-205 0 -340.5 72t-171.5 196z" />
    <glyph glyph-name="t" unicode="t" horiz-adv-x="706" 
d="M20 1008q0 16 17 16h2q204 0 373 291q11 20 26 20q17 0 17 -22v-289h172q16 0 16 -16v-29q0 -16 -16 -16h-172v-461q0 -45 0.5 -71.5t2 -64t4.5 -59.5t8.5 -49.5t14.5 -43t21 -30t29 -20.5t38 -6q52 0 86 39q17 17 24 7.5t-1 -30.5q-25 -63 -95.5 -118.5t-166.5 -55.5
q-79 0 -134.5 32.5t-84.5 92t-41.5 129.5t-12.5 160v549h-110q-17 0 -17 16v29z" />
    <glyph glyph-name="u" unicode="u" horiz-adv-x="1292" 
d="M37 948q-3 4 -6.5 9.5t-5.5 8t-4 6t-1.5 5.5t2 4t5.5 3.5t10 2.5l373 92q16 3 16 -12v-705q0 -175 41 -258.5t135 -83.5q61 0 111.5 31.5t80.5 81t46 106t16 111.5v209q0 32 -2.5 70t-9.5 97.5t-25.5 119t-44.5 102.5q-3 4 -6.5 9.5t-5.5 8t-4 6t-1.5 5.5t2 4t5.5 3.5
t10 2.5l375 92q14 3 14 -12v-639q0 -32 2.5 -70t9.5 -97.5t25.5 -119t44.5 -102.5q2 -4 7 -12q10 -13 9.5 -20t-18.5 -7h-387v119q-100 -160 -299 -160q-128 0 -216 34t-135.5 99.5t-67 146t-19.5 189.5v131q0 32 -2.5 70t-9.5 97.5t-25.5 119t-44.5 102.5z" />
    <glyph glyph-name="v" unicode="v" horiz-adv-x="1165" 
d="M39 995q-28 22 -14 28q2 1 6 1h450q29 0 2 -23q-35 -32 -31 -98.5t48 -183.5l155 -412q41 -107 45 -117q54 136 84 216q19 46 32 81t30.5 90.5t26.5 99t13.5 96t-2 92.5t-26 77.5t-53.5 61.5q-10 6 -8 13t16 7h320q12 0 12.5 -8t-10.5 -15q-76 -63 -162 -282l-283 -709
q-3 -8 -14 -8h-191q-13 0 -16 10q-21 56 -50 137t-57 158l-155 412q-86 221 -168 276z" />
    <glyph glyph-name="w" unicode="w" horiz-adv-x="1820" 
d="M39 995q-28 22 -14 28q2 1 6 1h450q29 0 2 -23q-35 -32 -31 -98.5t48 -183.5l155 -412q41 -107 45 -117q54 136 84 216q18 44 52 129t49 122l-23 62q-86 221 -168 276q-28 22 -14 28q2 1 6 1h451q29 0 2 -23q-35 -32 -31.5 -98.5t47.5 -183.5l156 -412q41 -107 45 -117
q54 136 84 216q22 55 37 96.5t34.5 106.5t25.5 117t5.5 107t-22 99t-60.5 72q-10 6 -8 13t16 7h320q12 0 12.5 -8t-10.5 -15q-76 -63 -162 -282l-282 -709q-3 -8 -15 -8h-190q-14 0 -17 10q-20 55 -48.5 136t-57.5 159l-100 266l-228 -563q-3 -8 -14 -8h-191q-13 0 -16 10
q-21 56 -50 137t-57 158l-155 412q-86 221 -168 276z" />
    <glyph glyph-name="x" unicode="x" horiz-adv-x="1083" 
d="M29 1010q-8 4 -7.5 9t13.5 5h450q11 0 12.5 -5t-5.5 -9q-18 -16 -15.5 -56t16.5 -85.5t35 -84.5q49 -82 99 -172q156 296 45 392q-10 6 -6 13t18 7h317q19 0 5 -15q-4 -4 -9 -8q-91 -61 -235 -282l-105 -162q80 -131 152 -252q81 -132 133 -196t105 -91q25 -11 15 -16
q-4 -2 -11 -2h-451q-29 0 -6 23q62 53 -74 273q-2 3 -3.5 5t-2.5 4l-86 139q-178 -324 -61 -424q8 -6 4.5 -13t-17.5 -7h-319q-23 0 4 23q50 33 103 99.5t128 182.5l125 195l-133 219q-92 148 -138.5 207t-94.5 84z" />
    <glyph glyph-name="y" unicode="y" horiz-adv-x="1234" 
d="M-23 -354q-52 34 -68 84t0 93t56 74t90 31q41 0 82 -20q23 -12 66.5 -41t77.5 -45.5t65 -16.5q40 0 69.5 11t53.5 38.5t37 50t37 68.5q1 2 6.5 11.5t7.5 15.5q-16 31 -58 119.5t-89 185.5l-203 414q-73 147 -112.5 206.5t-84.5 84.5q-15 8 -4 12q5 2 12 2h451
q11 0 11 -4.5t-7 -9.5q-20 -15 -23.5 -55.5t6.5 -86t27 -84.5q30 -70 60.5 -137t50.5 -108.5t57 -119.5t60 -126q175 347 196 412q32 93 21.5 177.5t-56.5 121.5q-6 4 -6.5 8.5t4.5 8t15 3.5h319q19 0 5 -15q-4 -4 -9 -8q-46 -33 -93.5 -101.5t-109.5 -180.5l-430 -803
q-77 -145 -193.5 -232t-234.5 -87q-86 0 -162 49z" />
    <glyph glyph-name="z" unicode="z" horiz-adv-x="1009" 
d="M33 0q-19 0 -6 20l604 941h-207q-108 0 -180 -42t-123 -133q-7 -10 -19 -10q-11 0 -18 9t-4 28q4 32 45 191q5 20 37 20h805q19 0 6 -20l-604 -941h276q108 0 180 42t123 133q7 10 19 10q11 0 18 -9t4 -28q-8 -46 -45 -191q-8 -20 -37 -20h-874z" />
    <glyph glyph-name="uni0394" unicode="&#x394;" horiz-adv-x="1189" 
 />
    </font>
</defs>
</svg>
